<svg xmlns="http://www.w3.org/2000/svg" version="1.1" xmlns:xlink="http://www.w3.org/1999/xlink" xmlns:svgjs="http://svgjs.dev/svgjs" width="500" height="500"><svg version="1.1" id="SvgjsSvg1001" xmlns="http://www.w3.org/2000/svg" xmlns:xlink="http://www.w3.org/1999/xlink" x="0px" y="0px" viewBox="0 0 500 500" style="enable-background:new 0 0 500 500;" xml:space="preserve">
<style type="text/css">
	.st0{fill:#C9C9C9;}
	.st1{fill:#A0A0A0;}
	.st2{fill:#71CCFF;}
	.st3{fill:#231F20;}
	.st4{fill:#F9F9F9;}
	.st5{fill:#7A7979;}
	.st6{fill:#4C4C4C;}
	.st7{fill:#F9B630;}
	.st8{fill:#D88A0E;}
	.st9{fill:#FFEDCC;}
	.st10{fill:#C0E7F9;}
	.st11{fill:#08B26C;}
	.st12{fill:#15A9EA;}
	.st13{fill:none;stroke:#C9C9C9;stroke-width:10;stroke-linecap:round;stroke-linejoin:round;stroke-miterlimit:10;}
	.st14{fill:none;stroke:#231F20;stroke-width:10;stroke-linecap:round;stroke-linejoin:round;stroke-miterlimit:10;}
	.st15{fill:#FFFFFF;}
	.st16{fill:#35EF9F;}
	.st17{fill:#22A6E0;}
	.st18{fill:#FC3A6D;}
	.st19{fill:#FFA9C8;}
	.st20{fill:#038E52;}
	.st21{fill:#E2074B;}
</style>
<g>
	<g>
		<path class="st3" d="M80.2,200.2H49.9c-2.8,0-5-2.2-5-5s2.2-5,5-5h30.3c2.8,0,5,2.2,5,5S82.9,200.2,80.2,200.2z"></path>
	</g>
</g>
<g>
	<g>
		<path class="st3" d="M33.4,200.2h-1.7c-2.8,0-5-2.2-5-5s2.2-5,5-5h1.7c2.8,0,5,2.2,5,5S36.1,200.2,33.4,200.2z"></path>
	</g>
</g>
<g>
	<g>
		<path class="st2" d="M80.2,148c-13,0-23.6,10.6-23.6,23.6s10.6,23.6,23.6,23.6h95.4c13,0,23.6-10.6,23.6-23.6S188.6,148,175.6,148
			h-0.5c0-9.5-7.7-17.1-17.1-17.1c-9.5,0-17.1,7.7-17.1,17.1c0-16.5-13.3-29.8-29.8-29.8S81.3,131.5,81.3,148H80.2z"></path>
	</g>
</g>
<g>
	<g>
		<path class="st3" d="M175.6,200.2H80.2c-15.8,0-28.6-12.8-28.6-28.6c0-14.6,10.9-26.6,25-28.4c2.3-16.9,16.9-30,34.5-30
			c13.6,0,25.4,7.9,31.1,19.3c4-4.1,9.6-6.6,15.8-6.6c10.6,0,19.4,7.5,21.6,17.4c13.9,1.9,24.6,13.9,24.6,28.3
			C204.2,187.3,191.4,200.2,175.6,200.2z M80.2,153c-10.3,0-18.6,8.3-18.6,18.6s8.3,18.6,18.6,18.6h95.4c10.3,0,18.6-8.3,18.6-18.6
			s-8.3-18.6-18.6-18.6h-0.5c-2.8,0-5-2.2-5-5c0-6.7-5.4-12.1-12.1-12.1s-12.1,5.4-12.1,12.1c0,2.8-2.2,5-5,5s-5-2.2-5-5
			c0-13.7-11.1-24.8-24.8-24.8S86.3,134.3,86.3,148c0,2.8-2.2,5-5,5H80.2z"></path>
	</g>
</g>
<g>
	<g>
		<path class="st10" d="M91.7,171.3H80.2c-2.8,0-5-2.2-5-5s2.2-5,5-5h11.6c1.6,0,2.9-1.3,2.9-2.9v-10.2c0-8.6,6.5-15.9,14.9-16.7
			c4.6-0.4,9.2,1.1,12.6,4.2c3.4,3.1,5.4,7.5,5.4,12.2c0,2.8-2.2,5-5,5s-5-2.2-5-5c0-1.8-0.8-3.5-2.1-4.8c-1.4-1.2-3.1-1.8-5-1.6
			c-3.3,0.3-5.8,3.3-5.8,6.7v10.2C104.6,165.5,98.8,171.3,91.7,171.3z"></path>
	</g>
</g>
<g>
	<g>
		<path class="st3" d="M332.3,87H302c-2.8,0-5-2.2-5-5s2.2-5,5-5h30.3c2.8,0,5,2.2,5,5S335.1,87,332.3,87z"></path>
	</g>
</g>
<g>
	<g>
		<path class="st3" d="M285.5,87h-1.7c-2.8,0-5-2.2-5-5s2.2-5,5-5h1.7c2.8,0,5,2.2,5,5S288.3,87,285.5,87z"></path>
	</g>
</g>
<g>
	<g>
		<path class="st2" d="M332.3,34.8c-13,0-23.6,10.6-23.6,23.6S319.3,82,332.3,82h95.4c13,0,23.6-10.6,23.6-23.6
			s-10.6-23.6-23.6-23.6h-0.5c0-9.5-7.7-17.1-17.1-17.1S393,25.3,393,34.8C393,18.3,379.6,5,363.2,5c-16.5,0-29.8,13.3-29.8,29.8
			H332.3z"></path>
	</g>
</g>
<g>
	<g>
		<path class="st3" d="M427.7,87h-95.4c-15.8,0-28.6-12.8-28.6-28.6c0-14.6,10.9-26.6,25-28.4c2.3-16.9,16.9-30,34.5-30
			c13.6,0,25.4,7.9,31.1,19.3c4-4.1,9.6-6.6,15.8-6.6c10.6,0,19.4,7.5,21.6,17.4c13.9,1.9,24.6,13.9,24.6,28.3
			C456.3,74.2,443.5,87,427.7,87z M332.3,39.8c-10.3,0-18.6,8.3-18.6,18.6S322,77,332.3,77h95.4c10.3,0,18.6-8.3,18.6-18.6
			s-8.3-18.6-18.6-18.6h-0.5c-2.8,0-5-2.2-5-5c0-6.7-5.4-12.1-12.1-12.1S398,28.1,398,34.8c0,2.8-2.2,5-5,5s-5-2.2-5-5
			c0-13.7-11.1-24.8-24.8-24.8s-24.8,11.1-24.8,24.8c0,2.8-2.2,5-5,5H332.3z"></path>
	</g>
</g>
<g>
	<g>
		<path class="st10" d="M343.9,58.1h-11.6c-2.8,0-5-2.2-5-5s2.2-5,5-5h11.6c1.6,0,2.9-1.3,2.9-2.9V35.1c0-8.6,6.5-15.9,14.9-16.7
			c4.6-0.4,9.2,1.1,12.6,4.2c3.4,3.1,5.4,7.5,5.4,12.2c0,2.8-2.2,5-5,5s-5-2.2-5-5c0-1.8-0.8-3.5-2.1-4.8c-1.4-1.2-3.1-1.8-5-1.6
			c-3.3,0.3-5.8,3.3-5.8,6.7v10.2C356.7,52.4,351,58.1,343.9,58.1z"></path>
	</g>
</g>
<g>
	<g>
		<rect x="5" y="310.7" class="st11" width="490" height="184.3"></rect>
	</g>
</g>
<g>
	<g>
		<path class="st16" d="M146.1,337.7H45.7c-2.8,0-5-2.2-5-5s2.2-5,5-5h100.4c2.8,0,5,2.2,5,5S148.8,337.7,146.1,337.7z"></path>
	</g>
</g>
<g>
	<g>
		<path class="st3" d="M495,315.7H5c-2.8,0-5-2.2-5-5s2.2-5,5-5h490c2.8,0,5,2.2,5,5S497.8,315.7,495,315.7z"></path>
	</g>
</g>
<g>
	<g>
		<path class="st3" d="M495,500H5c-2.8,0-5-2.2-5-5s2.2-5,5-5h490c2.8,0,5,2.2,5,5S497.8,500,495,500z"></path>
	</g>
</g>
<g>
	<g>
		<path class="st3" d="M495,500H5c-2.8,0-5-2.2-5-5s2.2-5,5-5h490c2.8,0,5,2.2,5,5S497.8,500,495,500z"></path>
	</g>
</g>
<g>
	<g>
		<path class="st11" d="M435.2,251.6c0.4-1.3,0.6-2.6,0.6-4c0-7.1-5.8-12.9-12.9-12.9c-7.1,0-12.9,5.8-12.9,12.9
			c0,1.4,0.2,2.7,0.6,4c-5.8,1.3-10.1,6.4-10.1,12.6c0,7.1,5.8,12.9,12.9,12.9c3.7,0,7.1-1.6,9.5-4.1c2.4,2.5,5.7,4.1,9.5,4.1
			c7.1,0,12.9-5.8,12.9-12.9C445.3,258,440.9,252.9,435.2,251.6z"></path>
	</g>
</g>
<g>
	<g>
		<path class="st3" d="M432.3,282.1c-3.4,0-6.6-1-9.5-2.7c-2.8,1.8-6.1,2.7-9.5,2.7c-9.9,0-17.9-8-17.9-17.9
			c0-6.7,3.8-12.7,9.5-15.8c0-0.3,0-0.5,0-0.8c0-9.9,8-17.9,17.9-17.9s17.9,8,17.9,17.9c0,0.3,0,0.5,0,0.8c5.7,3.1,9.5,9.1,9.5,15.8
			C450.3,274.1,442.2,282.1,432.3,282.1z M422.9,268c1.4,0,2.7,0.6,3.7,1.6c1.5,1.6,3.6,2.5,5.8,2.5c4.4,0,7.9-3.6,7.9-7.9
			c0-3.7-2.6-6.9-6.2-7.7c-1.4-0.3-2.6-1.2-3.3-2.4c-0.7-1.2-0.9-2.7-0.4-4c0.3-0.8,0.4-1.6,0.4-2.4c0-4.4-3.5-7.9-7.9-7.9
			s-7.9,3.6-7.9,7.9c0,0.8,0.1,1.6,0.4,2.4c0.4,1.3,0.3,2.8-0.4,4c-0.7,1.2-1.9,2.1-3.3,2.4c-3.6,0.8-6.2,4-6.2,7.7
			c0,4.4,3.5,7.9,7.9,7.9c2.2,0,4.3-0.9,5.8-2.5C420.2,268.5,421.5,268,422.9,268z"></path>
	</g>
</g>
<g>
	<g>
		<path class="st3" d="M422.9,315.7c-2.8,0-5-2.2-5-5V273c0-2.8,2.2-5,5-5s5,2.2,5,5v37.7C427.9,313.4,425.6,315.7,422.9,315.7z"></path>
	</g>
</g>
<g>
	<g>
		<path class="st11" d="M479.9,251.6c0.4-1.3,0.6-2.6,0.6-4c0-7.1-5.8-12.9-12.9-12.9s-12.9,5.8-12.9,12.9c0,1.4,0.2,2.7,0.6,4
			c-5.8,1.3-10.1,6.4-10.1,12.6c0,7.1,5.8,12.9,12.9,12.9c3.7,0,7.1-1.6,9.5-4.1c2.4,2.5,5.7,4.1,9.5,4.1c7.1,0,12.9-5.8,12.9-12.9
			C490,258,485.7,252.9,479.9,251.6z"></path>
	</g>
</g>
<g>
	<g>
		<path class="st3" d="M477.1,282.1c-3.4,0-6.7-1-9.5-2.7c-2.8,1.8-6.1,2.7-9.5,2.7c-9.9,0-17.9-8-17.9-17.9
			c0-6.7,3.8-12.7,9.5-15.8c0-0.3,0-0.5,0-0.8c0-9.9,8-17.9,17.9-17.9s17.9,8,17.9,17.9c0,0.3,0,0.5,0,0.8c5.7,3.1,9.5,9.1,9.5,15.8
			C495,274.1,487,282.1,477.1,282.1z M467.6,268C467.6,268,467.6,268,467.6,268c1.4,0,2.7,0.6,3.7,1.6c1.5,1.6,3.6,2.5,5.8,2.5
			c4.4,0,7.9-3.6,7.9-7.9c0-3.7-2.6-6.9-6.2-7.7c-1.4-0.3-2.6-1.2-3.3-2.4c-0.7-1.2-0.9-2.7-0.4-4c0.3-0.8,0.4-1.6,0.4-2.4
			c0-4.4-3.5-7.9-7.9-7.9s-7.9,3.6-7.9,7.9c0,0.8,0.1,1.6,0.4,2.4c0.4,1.3,0.3,2.8-0.4,4c-0.7,1.2-1.9,2.1-3.3,2.4
			c-3.6,0.8-6.2,4-6.2,7.7c0,4.4,3.5,7.9,7.9,7.9c2.2,0,4.3-0.9,5.8-2.5C464.9,268.5,466.2,268,467.6,268z"></path>
	</g>
</g>
<g>
	<g>
		<path class="st3" d="M467.6,315.7c-2.8,0-5-2.2-5-5V273c0-2.8,2.2-5,5-5s5,2.2,5,5v37.7C472.6,313.4,470.4,315.7,467.6,315.7z"></path>
	</g>
</g>
<g>
	<g>
		<path class="st11" d="M44.7,251.6c0.4-1.3,0.6-2.6,0.6-4c0-7.1-5.8-12.9-12.9-12.9c-7.1,0-12.9,5.8-12.9,12.9c0,1.4,0.2,2.7,0.6,4
			C14.3,252.9,10,258,10,264.2c0,7.1,5.8,12.9,12.9,12.9c3.7,0,7.1-1.6,9.5-4.1c2.4,2.5,5.7,4.1,9.5,4.1c7.1,0,12.9-5.8,12.9-12.9
			C54.7,258,50.4,252.9,44.7,251.6z"></path>
	</g>
</g>
<g>
	<g>
		<path class="st3" d="M41.8,282.1c-3.4,0-6.6-1-9.5-2.7c-2.8,1.8-6.1,2.7-9.5,2.7c-9.9,0-17.9-8-17.9-17.9c0-6.7,3.8-12.7,9.5-15.8
			c0-0.3,0-0.5,0-0.8c0-9.9,8-17.9,17.9-17.9s17.9,8,17.9,17.9c0,0.3,0,0.5,0,0.8c5.7,3.1,9.5,9.1,9.5,15.8
			C59.7,274.1,51.7,282.1,41.8,282.1z M32.4,268c1.4,0,2.7,0.6,3.7,1.6c1.5,1.6,3.6,2.5,5.8,2.5c4.4,0,7.9-3.6,7.9-7.9
			c0-3.7-2.6-6.9-6.2-7.7c-1.4-0.3-2.6-1.2-3.3-2.4c-0.7-1.2-0.9-2.7-0.4-4c0.3-0.8,0.4-1.6,0.4-2.4c0-4.4-3.5-7.9-7.9-7.9
			s-7.9,3.6-7.9,7.9c0,0.8,0.1,1.6,0.4,2.4c0.4,1.3,0.3,2.8-0.4,4c-0.7,1.2-1.9,2.1-3.3,2.4c-3.6,0.8-6.2,4-6.2,7.7
			c0,4.4,3.5,7.9,7.9,7.9c2.2,0,4.3-0.9,5.8-2.5C29.6,268.5,31,268,32.4,268z"></path>
	</g>
</g>
<g>
	<g>
		<path class="st3" d="M32.4,315.7c-2.8,0-5-2.2-5-5V273c0-2.8,2.2-5,5-5s5,2.2,5,5v37.7C37.4,313.4,35.1,315.7,32.4,315.7z"></path>
	</g>
</g>
<g>
	<g>
		<path class="st11" d="M89.4,251.6c0.4-1.3,0.6-2.6,0.6-4c0-7.1-5.8-12.9-12.9-12.9c-7.1,0-12.9,5.8-12.9,12.9c0,1.4,0.2,2.7,0.6,4
			c-5.8,1.3-10.1,6.4-10.1,12.6c0,7.1,5.8,12.9,12.9,12.9c3.7,0,7.1-1.6,9.5-4.1c2.4,2.5,5.7,4.1,9.5,4.1c7.1,0,12.9-5.8,12.9-12.9
			C99.5,258,95.2,252.9,89.4,251.6z"></path>
	</g>
</g>
<g>
	<g>
		<path class="st3" d="M86.6,282.1c-3.4,0-6.7-1-9.5-2.7c-2.8,1.8-6.1,2.7-9.5,2.7c-9.9,0-17.9-8-17.9-17.9c0-6.7,3.8-12.7,9.5-15.8
			c0-0.3,0-0.5,0-0.8c0-9.9,8-17.9,17.9-17.9s17.9,8,17.9,17.9c0,0.3,0,0.5,0,0.8c5.7,3.1,9.5,9.1,9.5,15.8
			C104.5,274.1,96.5,282.1,86.6,282.1z M77.1,268C77.1,268,77.1,268,77.1,268c1.4,0,2.7,0.6,3.7,1.6c1.5,1.6,3.6,2.5,5.8,2.5
			c4.4,0,7.9-3.6,7.9-7.9c0-3.7-2.6-6.9-6.2-7.7c-1.4-0.3-2.6-1.2-3.3-2.4c-0.7-1.2-0.9-2.7-0.4-4c0.3-0.8,0.4-1.6,0.4-2.4
			c0-4.4-3.5-7.9-7.9-7.9s-7.9,3.6-7.9,7.9c0,0.8,0.1,1.6,0.4,2.4c0.4,1.3,0.3,2.8-0.4,4c-0.7,1.2-1.9,2.1-3.3,2.4
			c-3.6,0.8-6.2,4-6.2,7.7c0,4.4,3.5,7.9,7.9,7.9c2.2,0,4.3-0.9,5.8-2.5C74.4,268.5,75.7,268,77.1,268z"></path>
	</g>
</g>
<g>
	<g>
		<path class="st3" d="M77.1,315.7c-2.8,0-5-2.2-5-5V273c0-2.8,2.2-5,5-5s5,2.2,5,5v37.7C82.1,313.4,79.9,315.7,77.1,315.7z"></path>
	</g>
</g>
<g>
	<g>
		<path class="st16" d="M17.7,337.7H5c-2.8,0-5-2.2-5-5s2.2-5,5-5h12.7c2.8,0,5,2.2,5,5S20.4,337.7,17.7,337.7z"></path>
	</g>
</g>
<g>
	<g>
		<path class="st16" d="M457.7,337.7h-76c-2.8,0-5-2.2-5-5s2.2-5,5-5h76c2.8,0,5,2.2,5,5S460.4,337.7,457.7,337.7z"></path>
	</g>
</g>
<g>
	<g>
		<path class="st7" d="M314.1,155.3v52.1c0,4.5,3.6,8.1,8.1,8.1h28c4.5,0,8.1-3.6,8.1-8.1v-52.1c0-4.5-3.6-8.1-8.1-8.1h-28
			C317.7,147.3,314.1,150.9,314.1,155.3z"></path>
	</g>
</g>
<g>
	<g>
		<path class="st3" d="M350.1,220.5h-28c-7.2,0-13.1-5.9-13.1-13.1v-52.1c0-7.2,5.9-13.1,13.1-13.1h28c7.2,0,13.1,5.9,13.1,13.1
			v52.1C363.2,214.7,357.3,220.5,350.1,220.5z M322.1,152.3c-1.7,0-3.1,1.4-3.1,3.1v52.1c0,1.7,1.4,3.1,3.1,3.1h28
			c1.7,0,3.1-1.4,3.1-3.1v-52.1c0-1.7-1.4-3.1-3.1-3.1H322.1z"></path>
	</g>
</g>
<g>
	<g>
		<rect x="141.8" y="244.9" class="st0" width="216.4" height="173.1"></rect>
	</g>
</g>
<g>
	<g>
		<path class="st4" d="M166.5,423c-2.8,0-5-2.2-5-5V264c0-2.8,2.2-5,5-5s5,2.2,5,5v154C171.5,420.8,169.3,423,166.5,423z"></path>
	</g>
</g>
<g>
	<g>
		<path class="st3" d="M358.2,423H141.8c-2.8,0-5-2.2-5-5V244.9c0-2.8,2.2-5,5-5h216.4c2.8,0,5,2.2,5,5V418
			C363.2,420.8,361,423,358.2,423z M146.8,413h206.4V249.9H146.8V413z"></path>
	</g>
</g>
<g>
	<g>
		<path class="st5" d="M278.1,418h-56.1v-46.2c0-10.6,8.6-19.3,19.3-19.3h17.6c10.6,0,19.3,8.6,19.3,19.3V418z"></path>
	</g>
</g>
<g>
	<g>
		<path class="st3" d="M278.1,423h-56.1c-2.8,0-5-2.2-5-5v-46.2c0-13.4,10.9-24.3,24.3-24.3h17.6c13.4,0,24.3,10.9,24.3,24.3V418
			C283.1,420.8,280.8,423,278.1,423z M226.9,413h46.1v-41.2c0-7.9-6.4-14.3-14.3-14.3h-17.6c-7.9,0-14.3,6.4-14.3,14.3V413z"></path>
	</g>
</g>
<g>
	<g>
		<path class="st7" d="M384.2,231c5.9,4.5,2.7,13.9-4.7,13.9H250h0H120.5c-7.4,0-10.6-9.4-4.7-13.9l115.6-88.4
			c11-8.4,26.3-8.4,37.3,0L384.2,231z"></path>
	</g>
</g>
<g>
	<g>
		<path class="st3" d="M379.5,249.9h-259c-5.6,0-10.3-3.4-12.1-8.7c-1.8-5.3-0.1-10.8,4.3-14.2l115.6-88.4c12.8-9.8,30.6-9.8,43.4,0
			L387.3,227l0,0c4.4,3.4,6.1,9,4.3,14.2C389.8,246.5,385.1,249.9,379.5,249.9z M250,141.3c-5.5,0-11,1.8-15.6,5.3L118.8,235
			c-1.4,1.1-1.1,2.5-0.9,3.1s0.8,1.9,2.6,1.9h259c1.8,0,2.4-1.3,2.6-1.9s0.5-2-0.9-3.1l-115.6-88.4C261,143,255.5,141.3,250,141.3z"></path>
	</g>
</g>
<g>
	<g>
		<path class="st9" d="M239,166.9c-1.5,0-3-0.7-4-2c-1.7-2.2-1.3-5.3,0.9-7l4.6-3.5c2.2-1.7,5.3-1.3,7,0.9s1.3,5.3-0.9,7l-4.6,3.5
			C241.1,166.6,240,166.9,239,166.9z"></path>
	</g>
</g>
<g>
	<g>
		<path class="st9" d="M156.7,229.9c-1.5,0-3-0.7-4-2c-1.7-2.2-1.3-5.3,0.9-7l65.5-50.1c2.2-1.7,5.3-1.3,7,0.9
			c1.7,2.2,1.3,5.3-0.9,7l-65.5,50.1C158.8,229.5,157.7,229.9,156.7,229.9z"></path>
	</g>
</g>
<g>
	<g>
		<path class="st2" d="M191.2,285.4h-19.8c-2.7,0-4.9,2.2-4.9,4.9v19.8c0,2.7,2.2,4.9,4.9,4.9h19.8c2.7,0,4.9-2.2,4.9-4.9v-19.8
			C196.2,287.6,194,285.4,191.2,285.4z"></path>
	</g>
</g>
<g>
	<g>
		<path class="st3" d="M191.2,320h-19.8c-5.5,0-9.9-4.5-9.9-9.9v-19.8c0-5.5,4.5-9.9,9.9-9.9h19.8c5.5,0,9.9,4.5,9.9,9.9v19.8
			C201.2,315.5,196.7,320,191.2,320z M171.5,290.4l0.1,19.7l19.7-0.1l-0.1-19.6H171.5z M191.2,290.4L191.2,290.4L191.2,290.4z"></path>
	</g>
</g>
<g>
	<g>
		<path class="st2" d="M220.9,285.4h-19.8c-2.7,0-4.9,2.2-4.9,4.9v19.8c0,2.7,2.2,4.9,4.9,4.9h19.8c2.7,0,4.9-2.2,4.9-4.9v-19.8
			C225.8,287.6,223.6,285.4,220.9,285.4z"></path>
	</g>
</g>
<g>
	<g>
		<path class="st3" d="M220.9,320h-19.8c-5.5,0-9.9-4.5-9.9-9.9v-19.8c0-5.5,4.5-9.9,9.9-9.9h19.8c5.5,0,9.9,4.5,9.9,9.9v19.8
			C230.8,315.5,226.4,320,220.9,320z M201.1,290.4l0.1,19.7l19.7-0.1l-0.1-19.6H201.1z M220.9,290.4L220.9,290.4L220.9,290.4z"></path>
	</g>
</g>
<g>
	<g>
		<path class="st2" d="M298.9,285.4h-19.8c-2.7,0-4.9,2.2-4.9,4.9v19.8c0,2.7,2.2,4.9,4.9,4.9h19.8c2.7,0,4.9-2.2,4.9-4.9v-19.8
			C303.8,287.6,301.6,285.4,298.9,285.4z"></path>
	</g>
</g>
<g>
	<g>
		<path class="st3" d="M298.9,320h-19.8c-5.5,0-9.9-4.5-9.9-9.9v-19.8c0-5.5,4.5-9.9,9.9-9.9h19.8c5.5,0,9.9,4.5,9.9,9.9v19.8
			C308.8,315.5,304.4,320,298.9,320z M279.1,290.4l0.1,19.7l19.7-0.1l-0.1-19.6H279.1z M298.9,290.4L298.9,290.4L298.9,290.4z"></path>
	</g>
</g>
<g>
	<g>
		<path class="st2" d="M328.5,285.4h-19.8c-2.7,0-4.9,2.2-4.9,4.9v19.8c0,2.7,2.2,4.9,4.9,4.9h19.8c2.7,0,4.9-2.2,4.9-4.9v-19.8
			C333.5,287.6,331.3,285.4,328.5,285.4z"></path>
	</g>
</g>
<g>
	<g>
		<path class="st3" d="M328.5,320h-19.8c-5.5,0-9.9-4.5-9.9-9.9v-19.8c0-5.5,4.5-9.9,9.9-9.9h19.8c5.5,0,9.9,4.5,9.9,9.9v19.8
			C338.5,315.5,334,320,328.5,320z M308.8,290.4l0.1,19.7l19.7-0.1l-0.1-19.6H308.8z M328.5,290.4L328.5,290.4L328.5,290.4z"></path>
	</g>
</g>
<g>
	<g>
		<path class="st3" d="M141.8,423H89c-2.8,0-5-2.2-5-5s2.2-5,5-5h52.8c2.8,0,5,2.2,5,5S144.6,423,141.8,423z"></path>
	</g>
</g>
<g>
	<g>
		<path class="st3" d="M67,423h-7c-2.8,0-5-2.2-5-5s2.2-5,5-5h7c2.8,0,5,2.2,5,5S69.8,423,67,423z"></path>
	</g>
</g>
<g>
	<g>
		<path class="st3" d="M411,423h-52.8c-2.8,0-5-2.2-5-5s2.2-5,5-5H411c2.8,0,5,2.2,5,5S413.8,423,411,423z"></path>
	</g>
</g>
<g>
	<g>
		<path class="st3" d="M440,423h-7c-2.8,0-5-2.2-5-5s2.2-5,5-5h7c2.8,0,5,2.2,5,5S442.8,423,440,423z"></path>
	</g>
</g>
</svg><style>@media (prefers-color-scheme: light) { :root { filter: none; } }
@media (prefers-color-scheme: dark) { :root { filter: none; } }
</style></svg>